#!OML:ASF H:\Terrain\Walking\May29\JustinRory\Justin.ASF
:FULLY-SPECIFIED
:DEGREES
665
root 10.232988942115767 17.57697105788423 -0.13751936127744457 -68.41381433133732 -14.537462095808383 -71.02589932135729 
lowerback 3.1161646706586827 1.9550170898203594 1.3463632455089822 
upperback 0.14199798526946109 2.6903338323353294 2.0594890618762474 
thorax -1.5607413592814372 1.3563478323353293 1.2749217784431137 
lowerneck -16.322656087824353 -3.515450678642715 -11.427968063872255 
upperneck 22.928840319361278 -2.748759526946108 2.5007957005988026 
head 10.279076247504989 -2.1036812974051897 2.398008902195609 
rclavicle 5.303653812375249e-14 -5.286260618762476e-15 
rhumerus -22.88981856287425 -9.259671117764471 -82.00524431137725 
rradius 30.016193413173653 
rwrist -8.30862326546906 
rhand -13.27443133732535 -195.43418702594812 
rfingers 7.12502 
rthumb 12.828674051896208 -8.013948303393214 
lclavicle 5.303653812375249e-14 -5.286260618762476e-15 
lhumerus -31.534091616766467 14.400548303393213 78.21486007984032 
lradius 37.083916566866264 
lwrist -7.414191756487026 
lhand 2.8419329141716565 39.058850499002 
lfingers 7.12502 
lthumb 28.30902375249501 66.93451876247505 
rfemur -6.0380378243512975 -2.0328737065868263 21.9640377245509 
rtibia 30.46006786427146 
rfoot -11.684157724550898 -5.5264802794411185 
rtoes -2.5741850698602793 
lfemur -17.237088023952094 3.8688355089820363 -14.592424351297405 
ltibia 31.03411856287425 
lfoot -12.886488065868265 9.547953213572855 
ltoes -7.777186806387226 
666
root 10.22972255489022 17.57787744510978 -0.08446267465069823 -68.77287123752494 -14.466200598802395 -71.36773409181636 
lowerback 3.1122841916167667 1.9602753113772455 1.3556757844311378 
upperback 0.14150353293413176 2.6976739520958084 2.0585183033932135 
thorax -1.558567245508982 1.3600209520958084 1.2686073652694612 
lowerneck -16.33145888223553 -3.510495908183633 -11.42423373253493 
upperneck 22.92976866267465 -2.7413832934131737 2.495145628742515 
head 10.280393213572854 -2.1010689421157687 2.396263972055888 
rclavicle 5.323999660678642e-14 -5.2588830339321366e-15 
rhumerus -22.89159101796407 -9.254340319361278 -81.99212694610779 
rradius 30.04598383233533 
rwrist -8.351690075848303 
rhand -13.2731375249501 -194.70971057884233 
rfingers 7.12502 
rthumb 12.82992115768463 -8.007955229540919 
lclavicle 5.323999660678642e-14 -5.2588830339321366e-15 
lhumerus -31.555497604790418 14.386785229540918 78.22371716566866 
lradius 37.060961876247504 
lwrist -7.419957644710578 
lhand 2.8374165469061876 39.054657285429144 
lfingers 7.12502 
lthumb 28.304706786427143 66.93103393213573 
rfemur -5.990582235528942 -2.0252319161676646 21.978110778443114 
rtibia 30.455190818363274 
rfoot -11.671310778443114 -5.49776007984032 
rtoes -2.58007001996008 
lfemur -17.2708251497006 3.8604944311377247 -14.590035528942115 
ltibia 31.019091017964072 
lfoot -12.841919161676648 9.521440918163673 
ltoes -7.762613373253494 
667
root 10.22645616766467 17.57878383233533 -0.03140598802395189 -69.13192814371256 -14.394939101796407 -71.70956886227545 
lowerback 3.1084037125748507 1.9655335329341317 1.3649883233532936 
upperback 0.1410090805988024 2.7050140718562874 2.0575475449101797 
thorax -1.5563931317365272 1.3636940718562873 1.2622929520958084 
lowerneck -16.34026167664671 -3.505541137724551 -11.420499401197604 
upperneck 22.930697005988023 -2.7340070598802395 2.4894955568862276 
head 10.281710179640719 -2.0984565868263476 2.3945190419161677 
rclavicle 5.344345508982035e-14 -5.231505449101797e-15 
rhumerus -22.893363473053892 -9.249009520958083 -81.97900958083832 
rradius 30.07577425149701 
rwrist -8.394756886227544 
rhand -13.27184371257485 -193.98523413173655 
rfingers 7.12502 
rthumb 12.831168263473055 -8.001962155688622 
lclavicle 5.344345508982035e-14 -5.231505449101797e-15 
lhumerus -31.57690359281437 14.373022155688622 78.232574251497 
lradius 37.03800718562874 
lwrist -7.425723532934132 
lhand 2.8329001796407187 39.05046407185629 
lfingers 7.12502 
lthumb 28.300389820359282 66.9275491017964 
rfemur -5.943126646706586 -2.017590125748503 21.99218383233533 
rtibia 30.45031377245509 
rfoot -11.658463832335329 -5.469039880239522 
rtoes -2.5859549700598805 
lfemur -17.3045622754491 3.8521533532934136 -14.587646706586826 
ltibia 31.004063473053893 
lfoot -12.797350257485032 9.494928622754491 
ltoes -7.748039940119761 
668
root 10.223189780439121 17.579690219560877 0.02165069860279445 -69.49098504990019 -14.323677604790419 -72.05140363273452 
lowerback 3.1045232335329342 1.9707917544910178 1.3743008622754493 
upperback 0.14051462826347305 2.7123541916167664 2.056576786427146 
thorax -1.554219017964072 1.3673671916167662 1.2559785389221558 
lowerneck -16.349064471057886 -3.500586367265469 -11.41676506986028 
upperneck 22.931625349301395 -2.7266308263473054 2.4838454850299403 
head 10.283027145708582 -2.095844231536926 2.392774111776447 
rclavicle 5.364691357285429e-14 -5.204127864271458e-15 
rhumerus -22.895135928143713 -9.24367872255489 -81.96589221556887 
rradius 30.105564670658683 
rwrist -8.437823696606786 
rhand -13.270549900199601 -193.26075768463076 
rfingers 7.12502 
rthumb 12.832415369261478 -7.995969081836327 
lclavicle 5.364691357285429e-14 -5.204127864271458e-15 
lhumerus -31.598309580838322 14.359259081836326 78.24143133732535 
lradius 37.01505249500998 
lwrist -7.431489421157685 
lhand 2.8283838123752494 39.046270858283435 
lfingers 7.12502 
lthumb 28.296072854291417 66.92406427145708 
rfemur -5.895671057884233 -2.0099483353293413 22.006256886227543 
rtibia 30.445436726546905 
rfoot -11.645616886227545 -5.440319680638723 
rtoes -2.5918399201596807 
lfemur -17.338299401197602 3.8438122754491024 -14.585257884231536 
ltibia 30.98903592814371 
lfoot -12.752781353293415 9.46841632734531 
ltoes -7.733466506986028 
